<?xml version="1.0" encoding="UTF-8"?>
<svg id="Layer_1" data-name="Layer 1" xmlns="http://www.w3.org/2000/svg" xmlns:xlink="http://www.w3.org/1999/xlink" viewBox="0 0 198.41 198.46">
  <defs>
    <style>
      .cls-1 {
        filter: url(#drop-shadow-1);
      }
    </style>
    <filter id="drop-shadow-1" x="0" y="0" width="198.41" height="198.46" filterUnits="userSpaceOnUse">
      <feOffset dx="7" dy="7"/>
      <feGaussianBlur result="blur" stdDeviation="5"/>
      <feFlood flood-color="#000" flood-opacity=".75"/>
      <feComposite in2="blur" operator="in"/>
      <feComposite in="SourceGraphic"/>
    </filter>
  </defs>
  <g class="cls-1">
    <path d="M80.85,37.38c-.4.11-.67.23-.8.3l.64,2.31.84-.23c.88-.24,1.31-.88,1.11-1.6-.23-.82-.92-1.01-1.8-.78Z"/>
    <path d="M95.98,36.39c-.16-.42-.28-.81-.39-1.18h-.02c-.08.39-.18.8-.29,1.2l-.57,1.92,2-.08-.72-1.86Z"/>
    <path d="M147.24,60.61c-1.14.81-1.72,2.17-.93,3.27.79,1.11,2.24,1.01,3.45.15,1.06-.76,1.77-2.11.94-3.27-.82-1.15-2.29-.98-3.46-.14Z"/>
    <path d="M156.42,77.58c1.22-.47,2.24-1.6,1.73-2.93-.51-1.32-1.97-1.52-3.32-1-1.31.5-2.21,1.67-1.72,2.93.49,1.27,1.92,1.54,3.31,1.01Z"/>
    <path d="M159.82,79.79l-2.04.56.21.75c.24.87.83,1.26,1.44,1.1.74-.2.88-.85.65-1.69-.1-.38-.19-.59-.26-.72Z"/>
    <path d="M157,118.08c-1.32-.47-2.76-.17-3.21,1.1-.46,1.28.45,2.42,1.86,2.92,1.23.44,2.74.24,3.22-1.1.48-1.34-.51-2.44-1.86-2.92Z"/>
    <path d="M157.16,80.52l-2.41.66c.02.17.07.41.15.7.23.85.76,1.56,1.68,1.31.86-.24,1.01-1.09.77-1.99l-.19-.68Z"/>
    <path d="M105.4,163.36c.41-.04.7-.12.83-.17l-.26-2.38-.87.09c-.91.1-1.43.65-1.35,1.4.09.84.75,1.14,1.65,1.06Z"/>
    <path d="M45.31,64.84c-.72-.45-1.36-.12-1.85.64-.22.35-.34.62-.38.76l2.03,1.27.46-.74c.49-.78.37-1.53-.26-1.93Z"/>
    <path d="M117.63,160.61c-.02-.4-.04-.81-.04-1.23l.05-2.01-1.91.6,1.19,1.6c.27.36.48.71.69,1.04h.02Z"/>
    <path d="M63.21,45.52h-.02c.13.39.26.78.37,1.19l.49,1.95,1.68-1.09-1.57-1.23c-.36-.28-.65-.55-.94-.82Z"/>
    <path d="M36.45,81.4l2.29.71.26-.84c.27-.88-.03-1.58-.75-1.8-.81-.25-1.35.23-1.62,1.1-.12.4-.17.69-.17.83Z"/>
    <path d="M37.34,89.27c1.37.28,2.76-.23,3.02-1.55.27-1.33-.79-2.33-2.25-2.62-1.28-.26-2.75.15-3.03,1.55-.28,1.39.85,2.34,2.26,2.62Z"/>
    <path d="M66.31,151.57l-1.69-1.07-.46,1.94c-.11.44-.23.82-.35,1.2h.02c.29-.27.6-.54.92-.81l1.57-1.25Z"/>
    <path d="M46.8,138.01l2.06-1.5c-.07-.18-.19-.38-.36-.61-.61-.84-1.38-1.05-2.11-.52-.7.51-.67,1.26-.12,2.02.22.3.41.52.53.61Z"/>
    <path d="M52.61,57.82c1,.98,2.44,1.31,3.38.34.95-.97.6-2.39-.46-3.43-.93-.91-2.39-1.37-3.39-.35-.99,1.01-.56,2.43.47,3.43Z"/>
    <path d="M125.22,151.96c-.21.06-.5.19-.8.33-1.65.79-2.11,2.14-1.34,3.73.66,1.4,1.88,1.9,3.52,1.12.4-.19.68-.37.87-.51l-2.24-4.67Z"/>
    <path d="M68.41,155.09c-.38.75,0,1.37.8,1.79.37.19.65.29.79.31l1.09-2.13-.78-.4c-.82-.42-1.56-.24-1.9.43Z"/>
    <path d="M126.97,47.1c1.62.86,2.97.44,3.81-1.12.74-1.36.42-2.65-1.18-3.5-.39-.21-.7-.33-.93-.4l-2.44,4.57c.17.14.45.29.74.45Z"/>
    <path d="M136.44,147.09l-1.58,1.22,1.67,1.09c.38.25.7.5,1.01.74h.02c-.16-.38-.32-.76-.46-1.16l-.65-1.9Z"/>
    <path d="M159.27,102.41l-.13,1.99,1.93-.52c.44-.12.83-.19,1.22-.27v-.02c-.38-.12-.77-.26-1.16-.41l-1.85-.77Z"/>
    <path d="M154.05,131.37c.19-.32.3-.59.34-.73l-2.21-1.28c-.14.14-.27.33-.41.58-.52.9-.4,1.69.38,2.14.75.43,1.42.11,1.9-.71Z"/>
    <path d="M160.89,113.73l-2.33-.57-.21.85c-.22.89.13,1.57.85,1.75.82.2,1.33-.31,1.55-1.19.1-.4.13-.7.13-.84Z"/>
    <path d="M198.07,97.89c-.2-.3-.44-.5-.44-.5-.24-.09-.48-.19-.73-.29,0,0-.54-.15-.98-.15s-.68.05-1.22.25c-.54.15-.69.49-.93.49-.2-.05-.54-.98-.54-.98l-3.04-11.81h.01s-.78-12.36-.78-12.36c0,0,0-.98.2-1.07.24-.05.48.19,1.03.19.59,0,.83-.05,1.27-.15.39-.14.88-.44.88-.44.19-.14.39-.34.59-.54,0,0,.19-.25.29-.59.1-.34.05-.78.05-.78-.05-.19-.1-.39-.15-.58-.05-.21-.14-.39-.24-.59,0,0-.25-.35-.49-.59-.29-.19-.59-.3-.59-.3-.24,0-.49-.05-.78-.1,0,0-.59.05-.98.2-.4.1-.64.24-1.13.58-.44.3-.48.68-.68.74-.25.05-.83-.74-.83-.74l-6.55-10.31h0s-4.54-11.53-4.54-11.53c0,0-.29-.93-.14-1.07.19-.15.49.05,1.03-.15.54-.15.78-.3,1.12-.54.34-.24.74-.68.74-.68.09-.2.24-.44.39-.68,0,0,.1-.3.1-.64-.05-.34-.15-.78-.15-.78-.1-.14-.19-.29-.34-.49h-.05c-.1-.14-.25-.29-.39-.49,0,0-.34-.29-.63-.39-.34-.15-.68-.15-.68-.15-.24.05-.49.1-.74.2,0,0-.53.19-.87.43-.34.29-.53.44-.88.93-.35.44-.25.78-.44.93-.21.1-.98-.49-.98-.49l-9.44-7.75h0s-7.92-9.54-7.92-9.54c0,0-.53-.78-.44-.98.1-.19.49-.14.93-.44.49-.34.63-.54.87-.88.29-.34.49-.87.49-.87.05-.25.1-.5.15-.79,0,0,.05-.29-.1-.63-.1-.35-.39-.69-.39-.69-.15-.1-.29-.24-.49-.39-.14-.1-.34-.19-.53-.34,0,0-.39-.15-.73-.15s-.69.1-.69.1c-.19.1-.39.25-.64.39,0,0-.44.34-.68.73-.3.35-.39.54-.59,1.07-.14.54,0,.89-.1,1.08-.14.15-1.11-.15-1.11-.15l-11.34-4.48h0s-10.45-6.65-10.45-6.65c0,0-.79-.58-.74-.78.05-.24.39-.24.74-.74.34-.43.44-.68.59-1.07.14-.44.14-.98.14-.98,0-.24,0-.49-.05-.78,0,0-.1-.35-.29-.59-.24-.29-.59-.54-.59-.54-.2-.05-.38-.11-.59-.2-.19-.04-.39-.09-.63-.14,0,0-.39-.05-.72.05-.35.09-.59.29-.59.29-.14.19-.34.39-.53.59,0,0-.29.49-.44.88-.14.44-.19.69-.19,1.22,0,.59.29.84.19,1.03-.04.24-1.02.24-1.02.24l-12.21-.77h0s-12.02-3.08-12.02-3.08c0,0-.93-.3-.93-.54,0-.19.34-.34.49-.88.19-.54.19-.83.19-1.27,0-.39-.1-.98-.1-.98-.09-.2-.19-.44-.34-.69,0,0-.15-.29-.49-.49-.29-.19-.69-.29-.69-.29-.19,0-.39,0-.63-.05-.2,0-.39,0-.64.05,0,0-.39.14-.68.29-.3.2-.49.49-.49.49-.1.25-.19.49-.29.74,0,0-.14.54-.14.97,0,.39.05.68.19,1.22.2.54.54.68.49.88,0,.25-.93.54-.93.54l-11.81,3.09v-.02s-12.36.74-12.36.74c0,0-.98,0-1.08-.2-.05-.19.19-.43.19-1.03,0-.53-.05-.78-.19-1.22-.1-.39-.44-.88-.44-.88-.14-.2-.29-.39-.48-.59,0,0-.24-.2-.59-.29-.34-.1-.78-.1-.78-.1-.19.05-.39.1-.58.2-.2.05-.39.09-.59.2,0,0-.39.24-.58.54-.24.29-.29.59-.29.59,0,.23-.05.49-.1.78,0,0,.05.54.2.98.09.39.24.64.54,1.07.34.49.74.54.79.74.05.2-.74.78-.74.78l-10.45,6.65h0s-11.39,4.49-11.39,4.49c0,0-.93.3-1.07.1-.15-.14.05-.49-.15-1.03-.14-.53-.29-.72-.54-1.12-.24-.34-.68-.68-.68-.68-.2-.1-.44-.24-.69-.39,0,0-.3-.1-.64-.1-.39,0-.78.15-.78.15-.15.1-.34.2-.54.34h.05c-.15.1-.34.24-.54.39,0,0-.24.34-.34.69-.15.34-.15.63-.15.63.05.25.1.5.2.79,0,0,.2.54.44.87.24.34.43.54.87.88.5.3.83.24.98.44.1.2-.49.98-.49.98l-7.75,9.43h-.02s-9.52,7.85-9.52,7.85c0,0-.83.59-.98.49-.19-.15-.14-.49-.49-.98-.3-.44-.5-.63-.84-.88-.38-.25-.87-.43-.87-.43-.25-.05-.5-.1-.78-.2,0,0-.34,0-.63.15-.35.1-.69.34-.69.34-.09.15-.24.35-.39.54-.1.15-.19.3-.34.49,0,0-.15.44-.15.78s.1.64.1.64c.1.2.24.44.39.68,0,0,.35.44.68.68.39.25.59.39,1.12.54.53.2.88,0,1.03.15.19.14-.1,1.07-.1,1.07l-4.49,11.39h0s-6.64,10.45-6.64,10.45c0,0-.58.79-.78.74-.24-.05-.29-.44-.73-.78-.44-.3-.68-.44-1.13-.54-.39-.15-.92-.2-.92-.2-.25,0-.49.05-.78.1,0,0-.34.1-.59.3-.29.24-.54.59-.54.59-.05.19-.1.38-.19.59-.05.19-.1.39-.2.58,0,0,0,.44.1.78.1.34.29.59.29.59.2.15.39.34.59.54,0,0,.48.3.87.44.39.1.68.15,1.23.15.59,0,.83-.25,1.03-.19.19.09.19,1.07.19,1.07l-.73,12.21h0l-3.07,11.97s-.3.93-.54.98c-.2,0-.39-.34-.93-.49-.54-.19-.78-.25-1.22-.25s-.98.15-.98.15c-.19.1-.43.2-.68.29,0,0-.29.2-.49.5-.19.29-.29.67-.29.67,0,.2,0,.4-.05.64,0,.19,0,.39.05.63,0,0,.1.44.29.73.2.29.49.44.49.44.2.1.44.2.68.34,0,0,.59.15.98.15.44,0,.73-.05,1.27-.24.54-.15.67-.49.88-.49.24.05.54.97.54.97l3.07,11.97h0l.73,12.21s0,.98-.19,1.07c-.2.05-.44-.19-1.03-.19-.54,0-.84.05-1.23.15-.44.14-.87.44-.87.44-.2.14-.39.34-.59.54,0,0-.19.25-.29.59-.1.34-.1.78-.1.78.05.19.1.39.2.58.05.2.09.39.19.59,0,0,.25.34.54.59.24.19.59.29.59.29.24,0,.49.05.78.1,0,0,.54-.06.98-.21.39-.14.63-.24,1.08-.59.43-.29.49-.68.73-.73.2-.05.78.73.78.73l6.55,10.31h0s4.59,11.54,4.59,11.54c0,0,.3.93.1,1.07-.15.15-.5-.04-1.03.15-.53.15-.78.29-1.12.53-.34.25-.68.68-.68.68-.1.2-.24.44-.39.68,0,0-.14.3-.1.64,0,.34.15.73.15.73.1.15.19.34.34.54.1.15.25.3.39.49,0,0,.34.29.69.39.34.15.63.1.63.1.24-.05.49-.1.78-.15,0,0,.49-.19.87-.44.34-.3.54-.44.88-.93.3-.44.24-.78.44-.93.15-.1.98.44.98.44l9.52,7.92h.01s7.76,9.43,7.76,9.43c0,0,.58.78.49.98-.15.19-.49.14-.98.43-.44.34-.63.54-.87.88-.24.34-.44.88-.44.88-.05.24-.09.49-.2.78,0,0,0,.3.1.63.14.35.38.68.38.68.15.1.3.25.49.39.15.1.34.19.54.34,0,0,.39.15.78.15.34,0,.64-.1.64-.1.19-.1.44-.25.69-.39,0,0,.43-.34.68-.73.25-.35.39-.59.54-1.12.2-.49,0-.84.15-1.03.14-.15,1.07.15,1.07.15l11.39,4.48h0s10.45,6.65,10.45,6.65c0,0,.79.58.74.78-.05.2-.44.24-.79.73-.34.44-.44.68-.59,1.08-.1.43-.15.97-.15.97,0,.24.05.49.1.78,0,0,.05.3.29.59.2.28.58.53.58.53.2.06.39.11.59.2.19.04.39.1.58.15,0,0,.44.05.78-.05.34-.1.59-.3.59-.3.15-.19.29-.39.48-.58,0,0,.34-.49.44-.88.14-.44.19-.69.19-1.27,0-.54-.24-.78-.19-.98.09-.24,1.08-.24,1.08-.24l12.33.79,11.84,3.08s.93.3.93.54c.05.19-.29.34-.49.88-.14.54-.19.83-.19,1.22,0,.44.14.98.14.98.1.25.19.48.29.74,0,0,.19.29.49.49.29.19.68.3.68.3.19,0,.39,0,.64.05v-.05h.63s.39-.14.69-.34c.34-.2.49-.44.49-.44.09-.25.19-.49.34-.74,0,0,.1-.54.1-.98s0-.68-.19-1.22c-.15-.53-.49-.68-.49-.93,0-.19.93-.49.93-.49l11.84-3.08,12.39-.79s.98,0,1.02.24c.1.2-.19.44-.19,1.03,0,.53.05.78.19,1.22.15.39.44.88.44.88.15.19.34.39.53.58,0,0,.25.2.59.3.34.1.72.1.72.1.2-.05.39-.1.63-.19.2-.05.39-.14.59-.25,0,0,.35-.2.59-.48.19-.3.29-.59.29-.59,0-.24,0-.49.05-.78,0,0,0-.54-.14-.97-.15-.4-.25-.64-.59-1.08-.34-.49-.69-.53-.74-.73-.05-.2.74-.78.74-.78l10.45-6.64h0s11.39-4.49,11.39-4.49c0,0,.92-.3,1.07-.09.1.13-.04.49.1,1.02.19.53.29.72.59,1.07.24.39.68.73.68.73.2.1.39.24.64.39,0,0,.34.1.69.1s.73-.15.73-.15c.14-.1.34-.2.53-.34.15-.14.29-.3.49-.43,0,0,.25-.3.39-.64.1-.34.1-.68.1-.68-.05-.24-.1-.49-.15-.73,0,0-.2-.54-.49-.88-.24-.34-.39-.54-.87-.88-.44-.34-.83-.24-.93-.43-.1-.21.44-.98.44-.98l7.85-9.49,9.5-7.8s.78-.58.98-.49c.19.15.09.49.44.93.34.49.54.63.88.93.34.25.87.44.87.44.25.05.5.09.74.19,0,0,.34,0,.68-.15.34-.1.63-.39.63-.39.15-.15.3-.3.44-.49h-.05c.1-.14.19-.34.34-.54,0,0,.15-.39.19-.73,0-.34-.1-.64-.1-.64-.1-.19-.25-.44-.39-.68,0,0-.39-.44-.74-.68-.34-.24-.59-.39-1.12-.53-.54-.19-.83,0-1.03-.15-.15-.14.14-1.07.14-1.07l4.54-11.53h0s6.6-10.31,6.6-10.31c0,0,.53-.78.78-.73.19.05.24.44.73.73.44.35.68.45,1.08.59.43.15.98.21.98.21.24,0,.49-.06.78-.1,0,0,.3-.1.59-.29.3-.25.49-.59.49-.59.05-.2.15-.39.24-.59.05-.19.1-.39.15-.58,0,0,0-.44-.05-.78-.1-.34-.29-.59-.29-.59-.2-.15-.39-.34-.64-.54,0,0-.44-.3-.87-.44-.39-.1-.64-.15-1.23-.15-.54,0-.83.24-1.03.19-.2-.09-.2-1.07-.2-1.07l.78-12.36h-.01s3.09-11.82,3.09-11.82c0,0,.29-.92.49-.97.24,0,.39.34.93.49.54.19.78.24,1.22.24s.98-.15.98-.15c.25-.09.49-.19.73-.34,0,0,.24-.15.44-.44.2-.29.34-.73.34-.73v-1.28s-.14-.39-.34-.67ZM170.43,52.12c1.17-1.03,2.64-1.61,2.64-1.61,0,0,.58-.2,1.07-.05.44.09.83.58.83.58l4.79,7.25,2.98,7.99s.14.58,0,1.03c-.19.49-.74.78-.74.78,0,0-1.32.88-2.83,1.22-1.56.39-3.22.34-3.22.34l-12.48.45c-.88-1.95-1.86-3.85-2.91-5.7l7.66-9.88s.99-1.37,2.21-2.4ZM164.76,73.13c2.55.21,7.08.59,9.28.82,0,0,.93.2,1.08.64.15.39-.54,1.12-.54,1.12-1.6,1.5-5.05,4.47-7,6.13-.76-2.99-1.7-5.89-2.83-8.71ZM174.58,122.76s.68.68.54,1.12c-.15.43-1.08.63-1.08.63-2.18.24-6.75.62-9.3.83,1.13-2.82,2.08-5.74,2.84-8.72,1.94,1.66,5.4,4.64,7.01,6.14ZM146.15,163.78c-.38.3-1.27-.14-1.27-.14-1.92-1.06-5.86-3.45-8.04-4.78,2.6-1.64,5.09-3.45,7.44-5.42.6,2.49,1.65,6.97,2.06,9.12,0,0,.14.97-.24,1.22h.05ZM129.56,153.16l1.45,2.33-.69.43-3.46-5.57.74-.46,3.55,1.72c.78.38,1.55.78,2.21,1.21l.02-.02c-.48-.68-.91-1.34-1.49-2.26l-1.48-2.38.69-.43,3.46,5.57-.79.49-3.56-1.7c-.82-.39-1.51-.78-2.14-1.18v.02c.52.7.96,1.37,1.49,2.24ZM123.19,147.02l-1.12.54-.44.25-1.32.54-2.59-3.07s-.53.2-1.51.58c-1.02.34-1.56.54-1.56.54l-.1,4.06-1.22.39-.49.1-1.36.34-2.01-3.47s-.59.1-1.61.29c-1.07.15-1.61.24-1.61.24l-.83,4-1.27.15-.49.05-1.42.05-1.37-3.76h-1.65c-1.08,0-1.62-.04-1.62-.04l-1.51,3.8-1.28-.09h-.49l-1.37-.2-.74-3.96s-.53-.1-1.61-.24c-1.07-.2-1.61-.34-1.61-.34l-2.14,3.52-1.22-.34-.5-.1-1.32-.39v-4.06s-.54-.2-1.56-.54c-1.02-.38-1.51-.58-1.51-.58l-2.74,3.02-1.17-.49-.44-.19-1.22-.64.68-4.01s-.49-.24-1.42-.78c-.98-.54-1.41-.83-1.41-.83l-3.22,2.54-1.03-.73-.44-.3-1.12-.83,1.37-3.76s-.44-.34-1.28-1.07c-.78-.69-1.17-1.03-1.17-1.03l-3.62,1.9-.92-.88-.35-.35-.97-1.03,2-3.46s-.34-.43-1.07-1.27c-.69-.84-.98-1.28-.98-1.28l-3.91,1.32-.74-1.02-.3-.44-.78-1.17,2.6-3.08s-.29-.49-.83-1.41c-.54-.92-.78-1.42-.78-1.42l-4.06.59-.58-1.12-.2-.44-.54-1.32,3.08-2.59s-.2-.54-.59-1.51c-.39-1.02-.54-1.56-.54-1.56l-4.1-.1-.35-1.22-.1-.49-.34-1.36,3.47-2.01s-.1-.59-.29-1.61c-.19-1.07-.25-1.61-.25-1.61l-4-.83-.15-1.27-.05-.49-.05-1.42,3.76-1.37v-3.27l-3.76-1.52.05-1.27.05-.49.2-1.37,3.96-.73s.05-.54.25-1.61c.19-1.07.34-1.56.34-1.56l-3.52-2.2.34-1.23.1-.49.39-1.31,4.06-.05s.19-.49.54-1.52c.39-1.02.59-1.51.59-1.51l-3.03-2.74.48-1.17.2-.44.63-1.27,4.01.73s.24-.49.78-1.46c.54-.93.83-1.37.83-1.37l-2.54-3.22.72-1.03.3-.44.83-1.12,3.76,1.37s.34-.44,1.07-1.27c.69-.84,1.03-1.17,1.03-1.17l-1.9-3.62.88-.93.35-.34,1.03-.97,3.47,2s.44-.34,1.27-1.07c.83-.68,1.23-.98,1.23-.98l-1.28-3.91,1.03-.74.44-.3,1.17-.78,3.08,2.58s.48-.28,1.41-.83c.93-.54,1.42-.78,1.42-.78l-.59-4.05,1.13-.59.44-.19,1.32-.54,2.59,3.08s.54-.2,1.51-.59c1.03-.39,1.56-.54,1.56-.54l.1-4.05,1.21-.39.5-.1,1.36-.34,2,3.47s.59-.1,1.61-.29c1.08-.2,1.61-.24,1.61-.24l.83-4,1.27-.15.49-.05,1.42-.05,1.36,3.76h3.27l1.52-3.76,1.26.05.49.05,1.37.15.74,4s.54.05,1.61.24c1.07.2,1.57.34,1.57.34l2.19-3.52,1.23.34.49.1,1.32.39v4.05s.54.19,1.56.54c1.03.39,1.51.59,1.51.59l2.74-3.03,1.12.49.49.19,1.22.64-.68,3.95s.49.3,1.42.83c.98.54,1.41.83,1.41.83l3.23-2.54,1.03.73.44.3,1.12.83-1.37,3.76s.39.34,1.23,1.08c.83.68,1.22,1.02,1.22,1.02l3.62-1.9.92.88.34.34.98,1.03-2,3.47s.34.44,1.08,1.26c.68.84.97,1.23.97,1.23l3.91-1.27.74,1.02.3.44.78,1.13-2.59,3.13s.3.49.83,1.42c.54.92.78,1.41.78,1.41l4.05-.59.54,1.12.25.44.53,1.32-3.07,2.59s.2.49.59,1.51c.39,1.03.54,1.52.54,1.52l4.05.15.39,1.22.1.49.34,1.37-3.47,2s.1.54.29,1.61c.2,1.08.24,1.61.24,1.61l4.01.83.15,1.27.04.49.05,1.42-3.76,1.37v1.66c0,1.07-.05,1.61-.05,1.61l3.8,1.52-.09,1.27v.49l-.2,1.37-3.96.74s-.1.54-.24,1.61c-.19,1.07-.34,1.56-.34,1.56l3.51,2.2-.34,1.23-.1.49-.39,1.32h-4.05s-.2.54-.54,1.56c-.39,1.03-.59,1.51-.59,1.51l3.03,2.73-.49,1.17-.19.44-.64,1.22-4-.68s-.25.49-.78,1.42c-.54.98-.83,1.41-.83,1.41l2.54,3.23-.73,1.03-.3.44-.83,1.12-3.76-1.37s-.34.39-1.08,1.23c-.68.83-1.02,1.21-1.02,1.21l1.9,3.62-.88.92-.34.35-1.03.97-3.46-2s-.44.34-1.27,1.07c-.83.68-1.27.97-1.27.97l1.32,3.91-1.03.74-.44.3-1.17.78-3.09-2.59s-.48.3-1.41.83c-.93.54-1.42.78-1.42.78h0s.58,4.06.58,4.06ZM112.71,159.39c-.34-1.63-1.53-2.39-3.05-2.07-.55.11-.91.27-1.08.4l.4,1.92,1.32-.28.14.67-2.14.45-.64-3.09c.35-.21,1.04-.59,1.92-.77.98-.21,1.84-.13,2.61.34.67.42,1.2,1.2,1.4,2.2.39,1.92-.65,3.6-2.83,4.05-.75.16-1.37.12-1.68.04l.06-.72c.38.08.84.11,1.49-.02,1.58-.33,2.41-1.52,2.07-3.13ZM113.19,155.93l.87-.28,1.3,1.75,2.24-.71.03-2.18.84-.27-.17,6.94-.99.31-4.14-5.57ZM103.97,160.66c-.53-.12-.88-.55-1.11-1.21-.31-.89-.54-1.5-.7-1.74l.88-.1c.13.17.34.72.61,1.51.29.88.68,1.18,1.46,1.12l.8-.09-.31-2.83.85-.09.7,6.44c-.42.13-1.03.25-1.62.31-.91.1-1.52,0-1.97-.33-.36-.25-.6-.68-.65-1.18-.09-.86.39-1.49,1.06-1.8v-.03ZM101.57,164.27l-.86.04-.29-6.55.86-.04.29,6.55ZM95.97,158.37c-.52-.01-1.06.08-1.4.24l-.16-.68c.32-.15.95-.29,1.76-.27,1.87.04,3.25,1.24,3.2,3.39-.05,2.05-1.48,3.41-3.54,3.37-.83-.02-1.34-.21-1.57-.33l.22-.69c.32.16.78.29,1.33.3,1.56.03,2.61-.93,2.65-2.65.04-1.61-.88-2.66-2.49-2.69ZM91.03,157.94c-.98-.12-1.68.44-1.86,1.88l-.47,3.86-.86-.11.46-3.8c.24-2,1.41-2.69,2.84-2.52,1.35.16,2.27,1.05,2.03,3.07l-.47,3.84-.86-.1.47-3.86c.18-1.46-.4-2.16-1.28-2.27ZM83.57,156.72l.15-.69,3.61.78-1.39,6.41-.84-.18,1.24-5.72-2.77-.6ZM82.86,161.84l-.2.69-4.72-1.35.2-.69,1.95.56,1.61-5.62.83.24-1.6,5.62,1.94.55ZM54.12,139.48c-.6.32-1.29.63-2.11.97l-3.14,1.26-.74-.81,4.57-4.72.56.62-2.02,2.06c-.64.65-1.42,1.44-2.03,1.98l.02.02c.72-.35,1.51-.7,2.41-1.06l3.14-1.28.44.48-1.59,2.9c-.47.86-.92,1.62-1.37,2.28h.01c.62-.52,1.46-1.23,2.23-1.84l2.2-1.76.55.6-5.16,4.07-.74-.81,1.59-2.97c.41-.75.79-1.4,1.18-1.98l-.02-.02ZM42.44,120.44c-.68.08-1.44.11-2.31.13l-3.39.02-.39-1.02,5.99-2.71.3.78-2.64,1.18c-.84.37-1.85.81-2.61,1.09v.03c.81-.06,1.67-.09,2.64-.1l3.39-.03.23.61-2.54,2.11c-.75.62-1.45,1.17-2.11,1.62v.02c.78-.27,1.83-.61,2.77-.91l2.69-.83.29.76-6.3,1.89-.39-1.02,2.57-2.18c.66-.54,1.25-1.01,1.83-1.41v-.03ZM39.14,107.14c-.85.22-1.64.36-2.65.53l-2.71.44-.13-.8,6.48-1.04.14.86-2.95,2.61c-.65.57-1.32,1.13-1.97,1.57v.03c.82-.18,1.6-.32,2.68-.5l2.77-.45.13.8-6.48,1.04-.15-.92,2.94-2.63c.68-.61,1.3-1.1,1.92-1.52v-.02ZM23.3,74.59c.14-.44,1.12-.64,1.12-.64,2.18-.27,6.69-.64,9.24-.83-1.12,2.82-2.07,5.73-2.83,8.72-1.94-1.66-5.36-4.63-7-6.13,0,0-.63-.68-.49-1.12h-.05ZM40.13,76.19l-1.51-2.81.4-.98,1.67,3.28,4.48-.97-.38.94-3.81.8.43.86,2.32.95-.32.79-6.07-2.48.32-.79,2.93,1.2v-.03c-.16-.26-.31-.51-.44-.75ZM46.82,62.22c.49.37.97.23,1.8-.3,1.02-.64,1.79-.78,2.56-.2.81.61,1.06,1.74.12,2.99-.38.51-.95.96-1.35,1.1l-.44-.6c.42-.17.91-.5,1.26-.97.53-.7.47-1.39-.06-1.78-.49-.37-.98-.29-1.79.22-.95.64-1.8.84-2.54.29-.82-.61-.91-1.75-.14-2.79.41-.54.83-.84,1.14-.98l.41.6c-.22.1-.64.34-1,.82-.54.73-.32,1.32.04,1.59ZM59.93,55.24l-.65.55-4.23-5.01,2.73-2.3.46.54-2.08,1.75,1.41,1.67,1.92-1.62.45.54-1.92,1.62,1.91,2.27ZM54.14,44.96c-.59-2.48-1.63-6.92-2.07-9.06,0,0-.1-.97.24-1.22.39-.3,1.22.14,1.22.14,1.94,1.06,5.83,3.42,8,4.75-2.59,1.64-5.06,3.44-7.4,5.39ZM56.13,54.06c1.62,1.58,1.5,3.41.32,4.62-1.23,1.25-3.05,1.2-4.47-.19-1.49-1.46-1.55-3.35-.31-4.61,1.27-1.3,3.07-1.17,4.46.19ZM46.44,66.01l.02.02c.42-.34.98-.35,1.64-.13.89.3,1.51.5,1.8.52l-.47.75c-.21,0-.77-.18-1.56-.45-.87-.31-1.35-.19-1.79.45l-.43.69,2.41,1.51-.45.73-5.49-3.43c.16-.41.44-.97.76-1.47.48-.78.94-1.19,1.47-1.35.43-.13.9-.05,1.33.22.73.46.93,1.23.76,1.95ZM41.87,125.83l.63-.32,1.16,2.3,2.11-1.07-1.3-2.57.63-.32,1.68,3.33-5.86,2.96-1.62-3.2.63-.32,1.23,2.43,1.85-.94-1.16-2.3ZM42.45,71.77l1.18-2.3.62.32-1.18,2.3,2.11,1.08,1.31-2.56.63.32-1.7,3.32-5.84-2.99,1.63-3.19.63.32-1.24,2.43,1.85.95ZM39.57,61.55c-1.34-2.19-3.69-6.07-4.74-7.97,0,0-.44-.88-.14-1.27.24-.35,1.22-.25,1.22-.25,2.15.44,6.58,1.48,9.07,2.06-1.95,2.35-3.76,4.83-5.4,7.42ZM38.41,78.62c.83.26,1.21.95,1.23,1.69h.03c.32-.43.85-.58,1.55-.53.94.06,1.59.1,1.87.04l-.26.85c-.21.05-.79.02-1.63-.04-.92-.08-1.35.16-1.61.89l-.24.77,2.72.84-.25.82-6.19-1.91c.04-.44.18-1.05.35-1.61.27-.88.6-1.39,1.08-1.68.38-.23.86-.28,1.34-.13ZM38.24,84.2c2.21.44,3.12,2.04,2.78,3.7-.34,1.72-1.9,2.66-3.85,2.27-2.04-.41-3.12-1.96-2.77-3.7.36-1.78,1.93-2.66,3.84-2.27ZM40.1,92.91l-.07.89-3.47.59c-.85.15-1.5.24-2.17.28v.02c.64.17,1.27.36,2.1.67l3.34,1.19-.06.89-6.67,1.2.07-.9,3.37-.55c.83-.14,1.66-.25,2.3-.33v-.02c-.64-.16-1.4-.42-2.23-.71l-3.24-1.12.07-.89,3.38-.56c.79-.13,1.58-.25,2.28-.3v-.02c-.71-.19-1.42-.43-2.22-.69l-3.24-1.11.06-.87,6.41,2.35ZM34.24,106.06l-.72.05-.32-4.9.72-.05.13,2.02,5.83-.38.06.86-5.83.38.13,2.01ZM30.84,116.63c.76,2.99,1.71,5.9,2.84,8.72-2.54-.21-7.07-.6-9.26-.83,0,0-.92-.2-1.07-.63h-.05c-.1-.44.53-1.12.53-1.12,1.64-1.5,5.07-4.47,7.01-6.13ZM35.51,113.73l.69,2.64,2.01-.52-.65-2.5.68-.18.65,2.5,2.29-.6-.72-2.78.69-.18.94,3.61-6.35,1.65-.9-3.47.69-.18ZM39.58,136.88c1.65,2.6,3.46,5.08,5.42,7.43-2.47.58-6.94,1.63-9.1,2.08,0,0-.98.1-1.22-.25h-.05c-.24-.39.2-1.27.2-1.27,1.06-1.91,3.42-5.81,4.75-7.99ZM43.5,134.49l-.45-.73,5-3.04-1.48-2.42.61-.37,1.92,3.15-5.6,3.41ZM45.08,135.98c.04-.48.3-.93.77-1.28.48-.35.96-.48,1.44-.41.65.09,1.28.54,1.78,1.22.15.21.28.4.36.59l2.13-1.55.5.69-5.24,3.82c-.3-.29-.66-.7-1.07-1.26-.5-.68-.71-1.3-.65-1.83ZM58.19,141.95l.63.58-4.46,4.81-.63-.58,4.46-4.81ZM52.07,162.56c.44-2.16,1.49-6.63,2.08-9.11,2.35,1.95,4.83,3.76,7.42,5.4-2.17,1.32-6.08,3.68-8.03,4.78,0,0-.83.44-1.22.14-.39-.24-.24-1.22-.24-1.22ZM59.92,151.91l-.68-.52,3.56-4.64-2.25-1.73.43-.56,2.93,2.25-4,5.2ZM64.56,147.23l.77.49-.51,2.12,1.99,1.26,1.69-1.37.75.48-5.42,4.33-.87-.55,1.61-6.75ZM64.81,51.41l-.74.48-1.69-6.73.87-.56,5.48,4.27-.77.5-1.72-1.34-1.97,1.28.55,2.11ZM75.86,41.32l2.42-.9.24.66-2.42.9.82,2.22,2.7-1,.25.67-3.5,1.3-2.28-6.15,3.36-1.24.25.67-2.56.95.72,1.94ZM82.69,39.81c.54.03.96.4,1.29,1.02.45.82.77,1.39.97,1.6l-.85.24c-.15-.15-.45-.65-.84-1.39-.43-.82-.86-1.05-1.62-.88l-.78.21.76,2.74-.83.23-1.72-6.24c.39-.2.98-.41,1.55-.57.88-.24,1.5-.24,1.99,0,.4.19.7.57.84,1.06.23.84-.15,1.54-.76,1.95v.03ZM84.48,35.86l.84-.17,1.34,6.42-.84.17-1.34-6.42ZM88.08,38.52c.22,1.59,1.29,2.49,2.89,2.26.52-.07,1.03-.25,1.35-.46l.27.64c-.29.2-.89.44-1.69.55-1.85.26-3.41-.71-3.7-2.84-.28-2.03.92-3.61,2.96-3.89.82-.11,1.36-.01,1.6.07l-.11.71c-.34-.11-.82-.16-1.36-.09-1.54.21-2.43,1.33-2.19,3.04ZM93.06,41.12l1.99-6.65,1.03-.04,2.52,6.47-.92.04-.79-2.03-2.35.09-.61,2.09-.89.03ZM104.15,40.67c.98.09,1.67-.49,1.8-1.94l.36-3.87.86.08-.35,3.81c-.18,2.01-1.33,2.73-2.76,2.6-1.35-.12-2.3-.98-2.12-3.01l.35-3.85.86.08-.36,3.87c-.13,1.46.47,2.14,1.35,2.23ZM107.9,41.66l1.21-6.45.92.17,1.48,3.65c.34.85.59,1.6.78,2.31h.02c.08-.88.21-1.67.4-2.67l.5-2.7.79.15-1.21,6.45-.85-.16-1.46-3.66c-.32-.8-.62-1.62-.82-2.38h-.03c-.1.83-.23,1.61-.43,2.68l-.52,2.76-.79-.15ZM114.13,42.94l1.64-6.35.83.21-1.64,6.35-.83-.21ZM117.39,37.72l.22-.69,4.68,1.5-.22.69-1.93-.62-1.79,5.56-.82-.27,1.79-5.56-1.92-.62ZM156.92,91.36l-.7.11-.56-3.65,6.49-.99.13.85-5.78.88.43,2.8ZM157.72,96.98l.12.96c-.83-.2-1.92-.61-2.39-.87l-.07-.62c.58.2,1.63.44,2.34.53ZM155.38,86.44l-.18-.84,6.42-1.34.18.84-6.42,1.34ZM160.71,82.17c-.15.4-.47.7-.97.84-.61.17-1.26-.09-1.69-.7h-.02c.02.65-.29,1.5-1.22,1.76-.54.15-1.02.04-1.42-.19-.53-.34-.91-1.01-1.2-2.05-.16-.57-.24-1.02-.28-1.3l6.22-1.71c.17.34.39.89.55,1.47.23.83.23,1.4.02,1.88ZM156.02,125.44c-.55-.26-1-.02-1.71.66-.87.83-1.59,1.12-2.47.71-.92-.43-1.39-1.49-.72-2.91.27-.58.74-1.13,1.1-1.35l.55.5c-.37.25-.79.67-1.04,1.21-.37.79-.18,1.45.42,1.73.55.26,1.02.09,1.71-.58.8-.82,1.59-1.19,2.43-.79.93.44,1.25,1.53.7,2.7-.29.61-.64.99-.92,1.19l-.53-.51c.2-.15.56-.46.82-1.01.39-.82.05-1.36-.36-1.55ZM155.38,122.97c-2.13-.76-2.79-2.47-2.22-4.06.59-1.65,2.27-2.36,4.14-1.69,1.96.7,2.81,2.39,2.21,4.06-.61,1.71-2.29,2.35-4.13,1.7ZM152.45,76.77c-.63-1.64.18-3.27,2.04-3.98,1.94-.75,3.69-.01,4.32,1.64.65,1.69-.21,3.28-2.03,3.98-2.11.81-3.72-.06-4.33-1.64ZM158.86,61.57c-1.64-2.6-3.45-5.08-5.41-7.44,2.49-.59,6.93-1.62,9.11-2.06,0,0,.93-.1,1.22.25.3.39-.14,1.27-.14,1.27-1.09,1.92-3.45,5.82-4.77,7.99ZM154,64.61l.52.96-2.26,2.5c-.58.62-1.11,1.16-1.63,1.63v.03c.68-.17,1.42-.3,2.29-.43l3.36-.46.52.96-5.59,3.46-.39-.74,2.46-1.51c.78-.48,1.73-1.05,2.45-1.42v-.03c-.8.16-1.65.31-2.61.44l-3.36.47-.31-.57,2.25-2.42c.67-.71,1.29-1.35,1.89-1.88v-.02c-.74.37-1.73.84-2.63,1.26l-2.56,1.17-.39-.72,6-2.69ZM150.32,64.74c-1.84,1.31-3.62.88-4.6-.5-1.02-1.43-.64-3.21.97-4.36,1.7-1.21,3.57-.94,4.6.5,1.05,1.47.62,3.23-.97,4.36ZM148.48,57.98l-1.34-1.52-4.39,3.85-.57-.65,4.39-3.85-1.33-1.52.54-.47,3.24,3.69-.54.48ZM139.04,55.61c.72.67,1.62.63,2.61-.43l2.64-2.85.64.59-2.6,2.8c-1.37,1.48-2.72,1.35-3.77.37-1-.93-1.22-2.19.16-3.68l2.63-2.83.63.59-2.64,2.85c-1,1.08-.94,1.98-.29,2.59ZM146.4,35.9c-.45,2.16-1.49,6.62-2.08,9.1-2.36-1.96-4.84-3.78-7.44-5.42,2.19-1.33,6.09-3.7,8-4.76,0,0,.88-.43,1.22-.14h.05c.34.24.25,1.22.25,1.22ZM137.77,46.82l.83.62-2.11,6.61-.73-.55.67-2.08-1.89-1.41-1.79,1.24-.71-.53,5.73-3.91ZM142.71,142.83l-1.83,1.82-.49-.5,1.83-1.82-1.67-1.68-2.04,2.03-.5-.5,2.64-2.64,4.63,4.65-2.54,2.53-.5-.5,1.93-1.93-1.46-1.47ZM131.77,147.27l.72-.56,1.82,1.2,1.86-1.44-.72-2.05.7-.54,2.24,6.57-.82.63-5.81-3.8ZM146.18,143l-.4-.6c.33-.15.72-.43,1.07-.85,1-1.19.91-2.62-.4-3.72-1.23-1.03-2.62-.98-3.66.25-.34.4-.6.88-.69,1.25l-.63-.3c.08-.34.37-.92.89-1.54,1.2-1.43,3-1.76,4.65-.37,1.57,1.32,1.73,3.3.41,4.87-.53.63-1,.92-1.24,1.02ZM144.73,134.82l.52-.75,2.1.59,1.34-1.94-1.31-1.74.5-.73,4.12,5.58-.59.85-6.69-1.86ZM151.76,132.84c-.51-.3-.83-.68-.96-1.14-.19-.63-.03-1.39.39-2.12.13-.22.25-.42.4-.57l-2.28-1.32.43-.74,5.61,3.24c-.15.39-.37.89-.71,1.49-.42.73-.9,1.17-1.4,1.34-.45.16-.97.11-1.48-.18ZM158.86,136.85c1.32,2.18,3.69,6.11,4.78,8.03,0,0,.39.88.14,1.27-.29.35-1.22.25-1.22.25-2.16-.45-6.66-1.49-9.15-2.08,1.97-2.36,3.79-4.86,5.44-7.47ZM159.1,116.62c-.84-.21-1.27-.88-1.33-1.61h-.03c-.29.45-.82.63-1.52.63-.94,0-1.59,0-1.87.07l.21-.86c.21-.06.79-.07,1.63-.06.93.02,1.34-.24,1.55-.99l.19-.78-2.76-.68.2-.83,6.29,1.54c-.02.44-.12,1.06-.26,1.63-.22.89-.52,1.42-.98,1.74-.36.26-.84.33-1.33.21ZM161.38,111.3l.42-2.69-2.05-.32-.4,2.55-.69-.11.4-2.55-2.34-.37-.45,2.84-.7-.11.58-3.69,6.48,1.02-.55,3.54-.7-.11ZM156.3,106.03l.06-.91,2.11-.57.15-2.35-2.01-.82.06-.88,6.4,2.68-.07,1.03-6.69,1.83ZM162.41,95.42l-.21-2.72-2.07.16.2,2.57-.7.05-.2-2.57-2.36.18.22,2.87-.71.06-.29-3.72,6.54-.51.28,3.57-.71.06ZM152.35,32.43c.83-1.32,2.05-2.34,2.05-2.34,0,0,.49-.38.98-.38.49-.05.97.29.97.29l6.64,5.26,5.47,6.81s.3.54.3,1.03c-.05.49-.39.97-.39.97,0,0-1.02,1.22-2.39,2-1.33.83-2.94,1.37-2.94,1.37l-11.75,4.24c-1.44-1.57-2.95-3.08-4.52-4.52l4.26-11.74s.54-1.61,1.31-2.98ZM128.77,22.52s0-1.71.38-3.22c.34-1.52,1.18-2.88,1.18-2.88,0,0,.34-.49.83-.68.44-.19,1.03,0,1.03,0l8.13,3.03,7.1,4.74s.44.39.59.83c.15.49-.1,1.07-.1,1.07,0,0-.58,1.47-1.61,2.64-1.03,1.22-2.39,2.2-2.39,2.2l-9.85,7.64c-1.85-1.05-3.74-2.02-5.69-2.91l.4-12.45ZM128.21,41.13c.5.18,1.07.42,1.67.74,1.09.58,1.73,1.24,1.99,1.99.27.75.21,1.58-.29,2.52-.51.94-1.21,1.56-2.05,1.8-.84.25-1.9.06-3.03-.55-.54-.29-.98-.56-1.34-.8l3.04-5.69ZM126.66,40.33l-.27.66-2.52-1.04-.79,1.92,2.38.99-.27.65-2.38-.99-.9,2.19,2.66,1.1-.27.66-3.45-1.43,2.51-6.06,3.31,1.37ZM123.87,23.35c.44.15.64,1.07.64,1.07.24,2.18.62,6.71.83,9.26-2.81-1.12-5.71-2.07-8.69-2.83,1.67-1.95,4.61-5.38,6.1-7.01,0,0,.69-.64,1.12-.49ZM103.21,10.84s.2-.59.54-.87c.39-.3,1.03-.35,1.03-.35l8.46.37,8.39,2.32s.59.19.83.63c.29.39.25,1.03.25,1.03,0,0-.1,1.56-.68,3.02-.64,1.42-1.61,2.79-1.61,2.79l-7.02,10.32c-2.07-.42-4.17-.75-6.3-.99l-3.49-11.96s-.49-1.61-.63-3.17c-.15-1.57.24-3.13.24-3.13ZM98.33,20.27s.43-.83.88-.83c.49,0,.92.83.92.83.92,2.01,2.69,6.19,3.68,8.55-1.52-.1-3.06-.15-4.61-.15s-3.06.05-4.57.15c.98-2.36,2.74-6.54,3.69-8.55ZM75.96,12.94c.29-.44.83-.63.83-.63l8.38-2.32,8.52-.37s.59.05.98.35c.39.29.54.87.54.87,0,0,.39,1.56.28,3.13-.15,1.56-.68,3.17-.68,3.17l-3.44,11.96c-2.15.24-4.26.57-6.35,1l-6.97-10.32s-1.02-1.37-1.61-2.79c-.64-1.46-.74-3.08-.74-3.08,0,0,0-.59.25-.98ZM73.95,24.42s.2-.92.59-1.07c.44-.15,1.17.49,1.17.49,1.5,1.63,4.46,5.06,6.12,6.99-2.99.76-5.9,1.71-8.72,2.83.2-2.55.56-7.06.83-9.24ZM71.69,46h.03c-.14-.68-.25-1.43-.36-2.3l-.35-3.37.98-.49,3.29,5.69-.75.37-1.43-2.51c-.45-.8-.99-1.76-1.35-2.49h-.03c.14.8.26,1.66.36,2.62l.37,3.37-.58.29-2.35-2.32c-.69-.69-1.31-1.33-1.82-1.94h-.02c.35.75.79,1.76,1.18,2.66l1.09,2.6-.73.36-2.51-6.08.98-.49,2.43,2.34c.61.6,1.13,1.15,1.58,1.68ZM50.41,24.33c.14-.49.63-.83.63-.83l7.1-4.74,8.14-3.04s.59-.14,1.02,0c.44.2.79.68.79.68,0,0,.88,1.37,1.22,2.88.34,1.51.34,3.22.34,3.22l.4,12.45c-1.95.88-3.84,1.86-5.69,2.91l-9.86-7.64s-1.36-1.03-2.39-2.2c-1.03-1.17-1.61-2.64-1.61-2.64,0,0-.2-.58-.1-1.07ZM29.99,42.06l5.36-6.73,6.7-5.34s.54-.34,1.03-.29c.49,0,.97.38.97.38,0,0,1.22,1.03,2,2.34.83,1.37,1.32,2.98,1.32,2.98l4.26,11.73c-1.57,1.44-3.08,2.95-4.52,4.52l-11.75-4.24s-1.56-.54-2.93-1.37c-1.37-.78-2.34-2-2.34-2,0,0-.39-.49-.44-.97,0-.49.35-1.03.35-1.03ZM15.73,66.29l3.02-8.13,4.75-7.12s.34-.49.83-.58c.49-.15,1.02.05,1.02.05,0,0,1.51.58,2.69,1.61,1.16,1.03,2.19,2.44,2.19,2.44l7.64,9.8c-1.06,1.86-2.04,3.77-2.93,5.73l-12.43-.45s-1.71,0-3.22-.34c-1.57-.34-2.89-1.22-2.89-1.22,0,0-.48-.3-.68-.78-.19-.44,0-1.03,0-1.03ZM10,85.15l2.32-8.36s.19-.54.63-.83c.39-.25.98-.25.98-.25,0,0,1.61.1,3.08.74,1.41.59,2.78,1.61,2.78,1.61l10.32,6.97c-.43,2.08-.76,4.2-1,6.34l-12.01,3.44s-1.56.54-3.12.68c-1.57.1-3.13-.29-3.13-.29,0,0-.59-.15-.88-.54-.34-.39-.34-.98-.34-.98l.38-8.54ZM28.82,103.82c-2.36-.99-6.54-2.76-8.55-3.68,0,0-.83-.44-.83-.92,0-.44.83-.88.83-.88,2.01-.92,6.19-2.7,8.55-3.69-.1,1.51-.15,3.03-.15,4.57s.05,3.08.15,4.61ZM12.9,122.51c-.39-.3-.58-.88-.58-.88l-2.31-8.11-.38-8.74s.05-.64.34-.99c.29-.38.88-.58.88-.58,0,0,1.56-.39,3.13-.24,1.56.15,3.17.68,3.17.68l11.97,3.44c.24,2.14.57,4.26,1,6.34l-10.33,6.98s-1.36.97-2.83,1.6c-1.42.59-3.03.74-3.03.74,0,0-.59,0-1.03-.25ZM28.04,146.3c-1.19,1.07-2.69,1.61-2.69,1.61,0,0-.54.25-1.02.1-.49-.1-.83-.58-.83-.58l-4.75-7.13-3.02-8.12s-.19-.59,0-1.03c.2-.49.68-.83.68-.83,0,0,1.37-.83,2.89-1.17,1.51-.39,3.22-.34,3.22-.34l12.45-.44c.89,1.95,1.86,3.86,2.92,5.71l-7.71,9.82s-.99,1.37-2.15,2.4ZM46.06,166.03c-.83,1.32-2,2.34-2,2.34,0,0-.49.39-.97.39-.49.05-1.03-.3-1.03-.3l-6.69-5.33-5.37-6.78s-.35-.49-.3-.98c0-.49.39-.98.39-.98,0,0,1.03-1.22,2.34-2.05,1.37-.78,2.98-1.31,2.98-1.31l11.74-4.26c1.43,1.57,2.93,3.07,4.5,4.5l-4.27,11.77s-.49,1.61-1.32,2.98ZM69.66,175.94s0,1.71-.34,3.22c-.34,1.52-1.22,2.89-1.22,2.89,0,0-.34.49-.79.68-.43.14-1.07,0-1.07,0l-7.93-2.97-7.27-4.81s-.49-.39-.63-.83c-.1-.49.1-1.08.1-1.08,0,0,.58-1.46,1.61-2.64,1.03-1.22,2.39-2.2,2.39-2.2l9.89-7.67c1.84,1.04,3.72,2.01,5.66,2.89l-.4,12.5ZM70.49,158.1c-.43-.12-1-.36-1.53-.62-.82-.42-1.27-.83-1.47-1.35-.17-.41-.13-.9.1-1.35.39-.77,1.14-1.03,1.87-.93v-.03c-.36-.39-.42-.94-.26-1.62.22-.91.37-1.55.36-1.84l.79.4c.01.21-.11.78-.32,1.6-.23.9-.07,1.36.61,1.74l.72.37,1.29-2.53.76.39-2.93,5.77ZM72.24,159.01l1.39-3.56c.73-1.88,2.04-2.26,3.37-1.73,1.27.5,1.94,1.58,1.2,3.48l-1.41,3.6-.81-.32,1.42-3.62c.54-1.37.15-2.19-.68-2.51-.92-.36-1.74.01-2.27,1.36l-1.42,3.62-.81-.32ZM74.54,175.12c-.44-.15-.59-1.08-.59-1.08-.27-2.18-.64-6.73-.84-9.29,2.82,1.13,5.74,2.07,8.73,2.83-1.66,1.94-4.63,5.39-6.13,6.99,0,0-.73.68-1.17.54ZM95.21,187.61s-.15.59-.54.88c-.39.3-.98.35-.98.35l-8.51-.37-8.39-2.32s-.54-.19-.83-.63c-.25-.39-.25-1.03-.25-1.03,0,0,.09-1.57.74-3.03.59-1.42,1.61-2.79,1.61-2.79l6.99-10.36c2.07.42,4.17.75,6.3.99l3.45,12.01s.54,1.61.68,3.18c.1,1.57-.28,3.12-.28,3.12ZM100.13,178.19s-.43.84-.92.84c-.44,0-.93-.84-.93-.84-.92-2.02-2.69-6.25-3.66-8.59,1.52.1,3.05.15,4.6.15s3.1-.05,4.63-.15c-.99,2.35-2.78,6.58-3.71,8.6ZM122.46,185.52c-.24.44-.83.63-.83.63l-8.39,2.32-8.46.37s-.64-.05-1.03-.35c-.39-.29-.54-.88-.54-.88,0,0-.39-1.55-.24-3.12.15-1.57.63-3.18.63-3.18l3.51-12.02c2.11-.24,4.2-.57,6.26-.98l7.04,10.36s.97,1.37,1.61,2.79c.59,1.46.68,3.03.68,3.03,0,0,.04.64-.25,1.03ZM124.51,174.04s-.2.92-.64,1.08c-.43.14-1.12-.5-1.12-.5-1.51-1.65-4.51-5.12-6.16-7.04,3-.76,5.92-1.71,8.75-2.84-.21,2.56-.59,7.12-.83,9.31ZM126.92,157.73c-1.11.53-2.02.66-2.78.43-.76-.23-1.4-.76-1.86-1.72-.46-.97-.54-1.9-.24-2.71.29-.82,1.07-1.56,2.24-2.12.55-.26,1.02-.46,1.44-.6l2.79,5.82c-.44.3-.97.62-1.58.91ZM148,174.14c-.1.44-.59.83-.59.83l-7.08,4.73-8.15,3.04s-.59.14-1.03,0c-.49-.2-.83-.68-.83-.68,0,0-.83-1.37-1.18-2.89-.38-1.51-.38-3.22-.38-3.22l-.4-12.5c1.93-.88,3.82-1.84,5.66-2.89l9.89,7.67s1.37.97,2.39,2.2c1.03,1.17,1.61,2.64,1.61,2.64,0,0,.24.59.1,1.08ZM168.47,156.35l-5.35,6.76-6.76,5.35s-.49.35-.97.3c-.49,0-.98-.39-.98-.39,0,0-1.22-1.03-2.05-2.34-.78-1.37-1.31-2.98-1.31-2.98l-4.27-11.77c1.57-1.43,3.07-2.93,4.5-4.5l11.78,4.26s1.61.54,2.94,1.36c1.37.78,2.39,2,2.39,2,0,0,.39.49.39.98.05.49-.3.98-.3.98ZM182.74,132.18l-2.98,7.98-4.79,7.26s-.38.48-.88.58c-.44.15-1.02-.1-1.02-.1,0,0-1.46-.53-2.69-1.61-1.16-1.03-2.15-2.4-2.15-2.4l-7.67-9.89c1.04-1.83,2.01-3.72,2.89-5.65l12.5.44s1.67-.05,3.22.34c1.52.34,2.89,1.17,2.89,1.17,0,0,.49.34.68.83.14.44,0,1.03,0,1.03ZM188.46,113.34l-2.32,8.29s-.24.59-.63.88c-.39.25-1.03.25-1.03.25,0,0-1.57-.15-3.03-.74-1.47-.63-2.79-1.6-2.79-1.6l-10.36-7.01c.42-2.07.75-4.17.99-6.29l12.01-3.46s1.61-.54,3.18-.68c1.56-.15,3.08.24,3.08.24,0,0,.59.2.93.58.3.35.35.99.35.99l-.38,8.56ZM169.6,94.62c2.35.99,6.58,2.78,8.59,3.71,0,0,.83.43.83.88,0,.49-.83.92-.83.92-2.02.92-6.25,2.71-8.6,3.7.1-1.53.15-3.07.15-4.63s-.05-3.07-.15-4.59ZM188.5,94.67c-.34.39-.93.54-.93.54,0,0-1.51.44-3.08.29-1.57-.15-3.18-.68-3.18-.68l-12.01-3.46c-.24-2.13-.57-4.23-.99-6.3l10.36-7s1.37-1.03,2.79-1.61c1.46-.63,3.03-.74,3.03-.74,0,0,.63,0,1.03.25.44.3.63.83.63.83l2.31,8.34.38,8.56s-.05.64-.35.98Z"/>
    <path d="M137.28,48.89c.14-.43.29-.8.44-1.17h-.02c-.31.24-.64.5-.98.74l-1.66,1.13,1.6,1.2.61-1.9Z"/>
    <path d="M149.13,133.24l-1.14,1.64,1.92.54c.44.12.81.26,1.18.4v-.02c-.25-.3-.52-.62-.78-.95l-1.19-1.61Z"/>
    <polygon points="137.16 80.35 130.03 80.35 125.98 97.5 122.61 80.21 115.47 80.21 112.25 97.69 108.15 80.6 100.57 80.6 100.57 80.69 108.64 117.13 115.91 117.13 118.8 100.67 122.22 116.94 129.05 116.94 137.16 80.35"/>
    <path d="M71.61,80.45v26.62s0,.64-.1,1.08c-.09.43-.44.97-.44.97,0,0-.24.24-.73.45-.49.19-1.03.19-1.03.19,0,0-.59.05-1.17-.19-.49-.15-.79-.45-.79-.45,0,0-.34-.44-.44-.87-.04-.44-.09-1.07-.09-1.07v-26.73h-6.79v29.21s.1,1.85.63,3.22c.48,1.32,1.37,2.25,1.37,2.25,0,0,.78.93,2,1.42,1.17.53,2.74.58,2.74.58h4.93s1.61-.14,2.78-.68c1.17-.59,2.1-1.61,2.1-1.61,0,0,.78-.93,1.18-2.3.43-1.41.54-3.37.54-3.37l-.05-28.73h-6.64Z"/>
    <path d="M87.53,80.4l-7.91,36.54h7.96l.99-3.81h7.22l1.13,4h7.43l-7.96-36.74h-8.85ZM89.64,105.46l-.25.24,2.69-11.34,2.49,11.09h-4.93Z"/>
  </g>
  <g id="SRzkr9">
    <g>
      <path d="M166.29,175.64c-1.67,0-3-1.31-2.99-2.95,0-1.62,1.34-2.93,3-2.93,1.67,0,3.01,1.31,3.01,2.94,0,1.64-1.34,2.94-3.01,2.94ZM163.78,172.71c-.01,1.33,1.1,2.43,2.46,2.45,1.43.02,2.56-1.04,2.58-2.4.01-1.33-1.09-2.43-2.46-2.45-1.42-.02-2.56,1.04-2.58,2.4Z"/>
      <path d="M165.97,172.98v.86h-.62v-2.41c.52,0,1.04-.06,1.54.02.53.08.69.76.3,1.14-.08.08-.17.14-.27.22.13.16.25.33.38.49.13.17.26.33.39.5-.42.15-.73.06-.98-.26-.1-.14-.21-.27-.3-.41-.1-.16-.22-.22-.44-.15ZM165.99,172.51c.27-.03.55.08.7-.2.05-.09.04-.27-.02-.33-.18-.21-.44-.11-.68-.12v.66Z"/>
    </g>
  </g>
</svg>